<mxfile host="app.diagrams.net" agent="Mozilla/5.0 (Windows NT 10.0; Win64; x64) AppleWebKit/537.36 (KHTML, like Gecko) Chrome/131.0.0.0 Safari/537.36" version="25.0.1">
  <diagram name="Page-1" id="LXgtOA4JHDHmA7VClIJa">
    <mxGraphModel dx="819" dy="448" grid="1" gridSize="10" guides="1" tooltips="1" connect="1" arrows="1" fold="1" page="1" pageScale="1" pageWidth="850" pageHeight="1100" math="0" shadow="0">
      <root>
        <mxCell id="0" />
        <mxCell id="1" parent="0" />
        <mxCell id="heMrsys8nOo8khprhls5-12" style="edgeStyle=orthogonalEdgeStyle;rounded=0;orthogonalLoop=1;jettySize=auto;html=1;exitX=0.5;exitY=1;exitDx=0;exitDy=0;" edge="1" parent="1" source="heMrsys8nOo8khprhls5-1" target="heMrsys8nOo8khprhls5-2">
          <mxGeometry relative="1" as="geometry" />
        </mxCell>
        <mxCell id="heMrsys8nOo8khprhls5-1" value="Compose ground truth" style="rounded=1;whiteSpace=wrap;html=1;fillColor=#d5e8d4;strokeColor=#82b366;" vertex="1" parent="1">
          <mxGeometry x="70" y="80" width="170" height="30" as="geometry" />
        </mxCell>
        <mxCell id="heMrsys8nOo8khprhls5-13" style="edgeStyle=orthogonalEdgeStyle;rounded=0;orthogonalLoop=1;jettySize=auto;html=1;exitX=0.5;exitY=1;exitDx=0;exitDy=0;entryX=0.5;entryY=0;entryDx=0;entryDy=0;" edge="1" parent="1" source="heMrsys8nOo8khprhls5-2" target="heMrsys8nOo8khprhls5-3">
          <mxGeometry relative="1" as="geometry" />
        </mxCell>
        <mxCell id="heMrsys8nOo8khprhls5-2" value="Record ground truth" style="rounded=1;whiteSpace=wrap;html=1;fillColor=#dae8fc;strokeColor=#6c8ebf;" vertex="1" parent="1">
          <mxGeometry x="70" y="130" width="170" height="30" as="geometry" />
        </mxCell>
        <mxCell id="heMrsys8nOo8khprhls5-14" style="edgeStyle=orthogonalEdgeStyle;rounded=0;orthogonalLoop=1;jettySize=auto;html=1;exitX=0.5;exitY=1;exitDx=0;exitDy=0;entryX=0.5;entryY=0;entryDx=0;entryDy=0;" edge="1" parent="1" source="heMrsys8nOo8khprhls5-3" target="heMrsys8nOo8khprhls5-4">
          <mxGeometry relative="1" as="geometry" />
        </mxCell>
        <mxCell id="heMrsys8nOo8khprhls5-3" value="Record variation 1" style="rounded=1;whiteSpace=wrap;html=1;fillColor=#fff2cc;strokeColor=#d6b656;" vertex="1" parent="1">
          <mxGeometry x="70" y="180" width="170" height="30" as="geometry" />
        </mxCell>
        <mxCell id="heMrsys8nOo8khprhls5-15" style="edgeStyle=orthogonalEdgeStyle;rounded=0;orthogonalLoop=1;jettySize=auto;html=1;exitX=0.5;exitY=1;exitDx=0;exitDy=0;entryX=0.5;entryY=0;entryDx=0;entryDy=0;" edge="1" parent="1" source="heMrsys8nOo8khprhls5-4" target="heMrsys8nOo8khprhls5-5">
          <mxGeometry relative="1" as="geometry" />
        </mxCell>
        <mxCell id="heMrsys8nOo8khprhls5-4" value="Record variation 2" style="rounded=1;whiteSpace=wrap;html=1;fillColor=#fff2cc;strokeColor=#d6b656;" vertex="1" parent="1">
          <mxGeometry x="70" y="230" width="170" height="30" as="geometry" />
        </mxCell>
        <mxCell id="heMrsys8nOo8khprhls5-16" style="edgeStyle=orthogonalEdgeStyle;rounded=0;orthogonalLoop=1;jettySize=auto;html=1;exitX=0.5;exitY=1;exitDx=0;exitDy=0;" edge="1" parent="1" source="heMrsys8nOo8khprhls5-5" target="heMrsys8nOo8khprhls5-6">
          <mxGeometry relative="1" as="geometry" />
        </mxCell>
        <mxCell id="heMrsys8nOo8khprhls5-5" value="Record variation 3" style="rounded=1;whiteSpace=wrap;html=1;fillColor=#fff2cc;strokeColor=#d6b656;" vertex="1" parent="1">
          <mxGeometry x="70" y="280" width="170" height="30" as="geometry" />
        </mxCell>
        <mxCell id="heMrsys8nOo8khprhls5-17" style="edgeStyle=orthogonalEdgeStyle;rounded=0;orthogonalLoop=1;jettySize=auto;html=1;exitX=0.5;exitY=1;exitDx=0;exitDy=0;entryX=0.5;entryY=1;entryDx=0;entryDy=0;" edge="1" parent="1" source="heMrsys8nOo8khprhls5-6" target="heMrsys8nOo8khprhls5-10">
          <mxGeometry relative="1" as="geometry" />
        </mxCell>
        <mxCell id="heMrsys8nOo8khprhls5-6" value="Record variation 4" style="rounded=1;whiteSpace=wrap;html=1;fillColor=#fff2cc;strokeColor=#d6b656;" vertex="1" parent="1">
          <mxGeometry x="70" y="330" width="170" height="30" as="geometry" />
        </mxCell>
        <mxCell id="heMrsys8nOo8khprhls5-21" style="edgeStyle=orthogonalEdgeStyle;rounded=0;orthogonalLoop=1;jettySize=auto;html=1;entryX=0.5;entryY=1;entryDx=0;entryDy=0;" edge="1" parent="1" source="heMrsys8nOo8khprhls5-7" target="heMrsys8nOo8khprhls5-11">
          <mxGeometry relative="1" as="geometry" />
        </mxCell>
        <mxCell id="heMrsys8nOo8khprhls5-7" value="Record variation 8" style="rounded=1;whiteSpace=wrap;html=1;fillColor=#fff2cc;strokeColor=#d6b656;" vertex="1" parent="1">
          <mxGeometry x="300" y="180" width="170" height="30" as="geometry" />
        </mxCell>
        <mxCell id="heMrsys8nOo8khprhls5-20" style="edgeStyle=orthogonalEdgeStyle;rounded=0;orthogonalLoop=1;jettySize=auto;html=1;entryX=0.5;entryY=1;entryDx=0;entryDy=0;" edge="1" parent="1" source="heMrsys8nOo8khprhls5-8" target="heMrsys8nOo8khprhls5-7">
          <mxGeometry relative="1" as="geometry" />
        </mxCell>
        <mxCell id="heMrsys8nOo8khprhls5-8" value="Record variation 7" style="rounded=1;whiteSpace=wrap;html=1;fillColor=#fff2cc;strokeColor=#d6b656;" vertex="1" parent="1">
          <mxGeometry x="300" y="230" width="170" height="30" as="geometry" />
        </mxCell>
        <mxCell id="heMrsys8nOo8khprhls5-19" style="edgeStyle=orthogonalEdgeStyle;rounded=0;orthogonalLoop=1;jettySize=auto;html=1;entryX=0.5;entryY=1;entryDx=0;entryDy=0;" edge="1" parent="1" source="heMrsys8nOo8khprhls5-9" target="heMrsys8nOo8khprhls5-8">
          <mxGeometry relative="1" as="geometry" />
        </mxCell>
        <mxCell id="heMrsys8nOo8khprhls5-9" value="Record variation 6" style="rounded=1;whiteSpace=wrap;html=1;fillColor=#fff2cc;strokeColor=#d6b656;" vertex="1" parent="1">
          <mxGeometry x="300" y="280" width="170" height="30" as="geometry" />
        </mxCell>
        <mxCell id="heMrsys8nOo8khprhls5-18" style="edgeStyle=orthogonalEdgeStyle;rounded=0;orthogonalLoop=1;jettySize=auto;html=1;entryX=0.5;entryY=1;entryDx=0;entryDy=0;" edge="1" parent="1" source="heMrsys8nOo8khprhls5-10" target="heMrsys8nOo8khprhls5-9">
          <mxGeometry relative="1" as="geometry" />
        </mxCell>
        <mxCell id="heMrsys8nOo8khprhls5-10" value="Record variation 5" style="rounded=1;whiteSpace=wrap;html=1;fillColor=#fff2cc;strokeColor=#d6b656;" vertex="1" parent="1">
          <mxGeometry x="300" y="330" width="170" height="30" as="geometry" />
        </mxCell>
        <mxCell id="heMrsys8nOo8khprhls5-22" style="edgeStyle=orthogonalEdgeStyle;rounded=0;orthogonalLoop=1;jettySize=auto;html=1;entryX=1;entryY=0.5;entryDx=0;entryDy=0;" edge="1" parent="1" source="heMrsys8nOo8khprhls5-11" target="heMrsys8nOo8khprhls5-1">
          <mxGeometry relative="1" as="geometry">
            <Array as="points">
              <mxPoint x="385" y="95" />
            </Array>
          </mxGeometry>
        </mxCell>
        <mxCell id="heMrsys8nOo8khprhls5-11" value="Record variation 9" style="rounded=1;whiteSpace=wrap;html=1;fillColor=#fff2cc;strokeColor=#d6b656;" vertex="1" parent="1">
          <mxGeometry x="300" y="130" width="170" height="30" as="geometry" />
        </mxCell>
      </root>
    </mxGraphModel>
  </diagram>
</mxfile>
